<?xml version="1.0" encoding="UTF-8" standalone="no"?>
<svg
   xmlns:dc="http://purl.org/dc/elements/1.1/"
   xmlns:cc="http://creativecommons.org/ns#"
   xmlns:rdf="http://www.w3.org/1999/02/22-rdf-syntax-ns#"
   xmlns:svg="http://www.w3.org/2000/svg"
   xmlns="http://www.w3.org/2000/svg"
   xmlns:sodipodi="http://sodipodi.sourceforge.net/DTD/sodipodi-0.dtd"
   xmlns:inkscape="http://www.inkscape.org/namespaces/inkscape"
   version="1.1"
   width="24"
   height="24"
   viewBox="0 0 24 24"
   id="svg3682"
   sodipodi:docname="target_white.svg"
   inkscape:version="0.92.1 r15371">
  <metadata
     id="metadata3688">
    <rdf:RDF>
      <cc:Work
         rdf:about="">
        <dc:format>image/svg+xml</dc:format>
        <dc:type
           rdf:resource="http://purl.org/dc/dcmitype/StillImage" />
        <dc:title></dc:title>
      </cc:Work>
    </rdf:RDF>
  </metadata>
  <defs
     id="defs3686" />
  <sodipodi:namedview
     pagecolor="#ffffff"
     bordercolor="#666666"
     borderopacity="1"
     objecttolerance="10"
     gridtolerance="10"
     guidetolerance="10"
     inkscape:pageopacity="0"
     inkscape:pageshadow="2"
     inkscape:window-width="2880"
     inkscape:window-height="1720"
     id="namedview3684"
     showgrid="false"
     inkscape:zoom="61.125"
     inkscape:cx="12"
     inkscape:cy="12"
     inkscape:window-x="-11"
     inkscape:window-y="-11"
     inkscape:window-maximized="1"
     inkscape:current-layer="svg3682" />
  <path
     d="M11,2V4.07C7.38,4.53 4.53,7.38 4.07,11H2V13H4.07C4.53,16.62 7.38,19.47 11,19.93V22H13V19.93C16.62,19.47 19.47,16.62 19.93,13H22V11H19.93C19.47,7.38 16.62,4.53 13,4.07V2M11,6.08V8H13V6.09C15.5,6.5 17.5,8.5 17.92,11H16V13H17.91C17.5,15.5 15.5,17.5 13,17.92V16H11V17.91C8.5,17.5 6.5,15.5 6.08,13H8V11H6.09C6.5,8.5 8.5,6.5 11,6.08M12,11A1,1 0 0,0 11,12A1,1 0 0,0 12,13A1,1 0 0,0 13,12A1,1 0 0,0 12,11Z"
     id="path3680"
     style="fill:#ffffff" />
</svg>
